<svg id="Capa_1" data-name="Capa 1" xmlns="http://www.w3.org/2000/svg" viewBox="0 0 1005 600"><defs><style>.cls-1{fill:#fff;}.cls-2{fill:#1f77b4;}.cls-3{fill:#ff7f0e;}.cls-4{fill:none;stroke:#000;}.cls-10,.cls-5,.cls-7,.cls-8,.cls-9{isolation:isolate;}.cls-5,.cls-9{font-size:10px;}.cls-5{font-family:Helvetica;}.cls-6{letter-spacing:-0.07em;}.cls-10,.cls-7{font-size:12px;font-family:Arial-BoldMT, Arial;font-weight:700;}.cls-7{fill:#7b7b7b;}.cls-9{font-family:ArialMT, Arial;}</style></defs><title>crimenesdeodio</title><rect id="backgorund" class="cls-1" width="1005" height="600"/><g id="viz"><rect id="undefined_-_BLACK_HISPANIC" data-name="undefined - BLACK HISPANIC" class="cls-2" x="348.6" y="484" width="147.8" height="96"/><rect id="undefined_-_BLACK" data-name="undefined - BLACK" class="cls-3" x="199.8" y="20" width="147.8" height="560"/><rect id="undefined_-_WHITE" data-name="undefined - WHITE" class="cls-3" x="497.4" y="244" width="147.8" height="336"/><rect id="undefined_-_WHITE_HISPANIC" data-name="undefined - WHITE HISPANIC" class="cls-3" x="646.2" y="180" width="147.8" height="400"/><rect id="undefined_-_ASIAN_PACIFIC_ISLANDER" data-name="undefined - ASIAN / PACIFIC ISLANDER" class="cls-2" x="51" y="484" width="147.8" height="96"/><g id="xAxis"><path class="cls-4" d="M50,580H795"/><line class="cls-4" x1="124.9" y1="580" x2="124.9" y2="586"/><text class="cls-5" transform="translate(59.98 596.1)">ASIAN / <tspan class="cls-6" x="38.34" y="0">P</tspan><tspan x="44.28" y="0">ACIFIC ISLANDER</tspan></text><line class="cls-4" x1="273.7" y1="580" x2="273.7" y2="586"/><text class="cls-5" transform="translate(257.3 596.1)">BLACK</text><line class="cls-4" x1="422.5" y1="580" x2="422.5" y2="586"/><text class="cls-5" transform="translate(381.47 596.1)">BLACK HIS<tspan class="cls-6" x="52.24" y="0">P</tspan><tspan x="58.17" y="0">ANIC</tspan></text><line class="cls-4" x1="571.3" y1="580" x2="571.3" y2="586"/><text class="cls-5" transform="translate(555.19 596.1)">WHITE</text><line class="cls-4" x1="720.1" y1="580" x2="720.1" y2="586"/><text class="cls-5" transform="translate(679.36 596.1)">WHITE HIS<tspan class="cls-6" x="51.67" y="0">P</tspan><tspan x="57.6" y="0">ANIC</tspan></text><text class="cls-7" transform="translate(766.31 576)">Race</text></g><g id="yAxis"><path class="cls-4" d="M44,580h6V20H44"/><line class="cls-4" x1="50" y1="580" x2="44" y2="580"/><text class="cls-5" transform="translate(35.44 583.2)">0</text><line class="cls-4" x1="50" y1="500" x2="44" y2="500"/><text class="cls-5" transform="translate(35.44 503.2)">5</text><line class="cls-4" x1="50" y1="420" x2="44" y2="420"/><text class="cls-5" transform="translate(29.88 423.2)">10</text><line class="cls-4" x1="50" y1="340" x2="44" y2="340"/><text class="cls-5" transform="translate(29.88 343.2)">15</text><line class="cls-4" x1="50" y1="260" x2="44" y2="260"/><text class="cls-5" transform="translate(29.88 263.2)">20</text><line class="cls-4" x1="50" y1="180" x2="44" y2="180"/><text class="cls-5" transform="translate(29.88 183.2)">25</text><line class="cls-4" x1="50" y1="100" x2="44" y2="100"/><text class="cls-5" transform="translate(29.88 103.2)">30</text><line class="cls-4" x1="50" y1="20" x2="44" y2="20"/><text class="cls-5" transform="translate(29.88 23.2)">35</text></g></g><rect class="cls-2" x="810" y="36" width="15" height="15"/><g class="cls-8"><text class="cls-9" transform="translate(830 48.5)">MALE</text></g><rect class="cls-3" x="810" y="57" width="15" height="15"/><g class="cls-8"><text class="cls-9" transform="translate(830 69.5)">FEMALE</text></g><g class="cls-8"><text class="cls-10" transform="translate(810 20)">Gender</text></g></svg>